<svg width="522" height="132" viewBox="0 0 522 132" fill="none" xmlns="http://www.w3.org/2000/svg">
<path fill-rule="evenodd" clip-rule="evenodd" d="M100.21 82.768C96.489 89.9902 91.2869 95.7636 84.6037 100.088C76.4437 105.272 66.8917 107.864 55.9477 107.864C46.6357 107.864 38.1397 105.704 30.4597 101.384C22.8757 96.968 16.8757 90.872 12.4597 83.096C8.04369 75.32 5.83569 66.536 5.83569 56.744C5.83569 46.952 8.04369 38.168 12.4597 30.392C16.8757 22.52 22.8757 16.376 30.4597 11.96C38.1397 7.544 46.6357 5.336 55.9477 5.336C66.8917 5.336 76.4437 7.976 84.6037 13.256C91.3014 17.5898 96.5115 23.4111 100.234 30.72C101.047 32.3158 101.789 33.9824 102.46 35.72H86.7637C83.9797 29.672 79.9477 25.016 74.6677 21.752C69.4837 18.488 63.2437 16.856 55.9477 16.856C48.9397 16.856 42.6517 18.488 37.0837 21.752C31.5157 25.016 27.1477 29.672 23.9797 35.72C20.8117 41.672 19.2277 48.68 19.2277 56.744C19.2277 64.712 20.8117 71.72 23.9797 77.768C27.1477 83.72 31.5157 88.328 37.0837 91.592C42.6517 94.856 48.9397 96.488 55.9477 96.488C63.2437 96.488 69.4837 94.904 74.6677 91.736C79.9477 88.472 83.9797 83.816 86.7637 77.768H102.46C101.782 79.5054 101.032 81.1721 100.21 82.768ZM72.0496 87.4762C76.4265 84.7675 79.8196 80.8957 82.2218 75.6773L83.561 72.768H109.776L107.118 79.5847C103.017 90.1001 96.4158 98.4003 87.32 104.286L87.3025 104.297L87.2849 104.308C78.2211 110.067 67.7124 112.864 55.9477 112.864C45.8275 112.864 36.4796 110.507 28.0084 105.742L27.9759 105.724L27.9437 105.705C19.5812 100.836 12.9555 94.0941 8.11189 85.5651C3.22856 76.9662 0.835693 67.3172 0.835693 56.744C0.835693 46.1756 3.22642 36.5304 8.10531 27.9345C12.9443 19.3127 19.5695 12.5153 27.9437 7.63912L27.9555 7.63226L27.9673 7.62547C36.4449 2.75085 45.8075 0.335999 55.9477 0.335999C67.7302 0.335999 78.2517 3.19043 87.32 9.05815C96.429 14.9522 103.028 23.3108 107.124 33.9189L109.75 40.72H83.561L82.2218 37.8107C79.8176 32.5879 76.4208 28.714 72.0386 26.005L72.0211 25.9941L72.0036 25.9832C67.7586 23.3104 62.4831 21.856 55.9477 21.856C49.7499 21.856 44.3482 23.2892 39.6123 26.0655C34.8994 28.8282 31.1687 32.7712 28.4089 38.04L28.4012 38.0547L28.3934 38.0692C25.679 43.169 24.2277 49.3395 24.2277 56.744C24.2277 64.0324 25.6712 70.2153 28.4013 75.4335C31.1543 80.5999 34.8833 84.5064 39.6123 87.2785C44.3482 90.0548 49.7499 91.488 55.9477 91.488C62.504 91.488 67.7973 90.0718 72.0496 87.4762ZM181.686 91.344V112H123.446V1.632H146.55V91.344H181.686ZM141.55 96.344V6.632H128.446V107H176.686V96.344H141.55ZM215.186 1.632V112H192.082V1.632H215.186ZM317.425 131.008L297.943 111.526C293.533 112.514 289.051 113.008 284.504 113.008C274.384 113.008 265.036 110.651 256.564 105.886L256.544 105.874L256.523 105.863C248.071 101.003 241.348 94.2721 236.403 85.7494L236.385 85.718L236.367 85.6863C231.497 77.0045 229.104 67.3179 229.104 56.744C229.104 46.1708 231.497 36.5218 236.38 27.9229L236.385 27.9142L236.39 27.9056C241.332 19.2823 248.063 12.5328 256.544 7.75762C265.016 2.89094 274.372 0.479998 284.504 0.479998C294.722 0.479998 304.127 2.88637 312.608 7.75762C321.082 12.5293 327.774 19.2319 332.628 27.7789C337.515 36.3851 339.904 46.0841 339.904 56.744C339.904 67.1043 337.617 76.5865 332.949 85.0736C329.351 91.616 324.68 97.1141 318.96 101.528L348.608 131.008H317.425ZM310.136 12.104C302.456 7.688 293.912 5.48 284.504 5.48C275.192 5.48 266.696 7.688 259.016 12.104C251.336 16.424 245.24 22.52 240.728 30.392C236.312 38.168 234.104 46.952 234.104 56.744C234.104 66.536 236.312 75.368 240.728 83.24C245.24 91.016 251.336 97.112 259.016 101.528C266.696 105.848 275.192 108.008 284.504 108.008C289.592 108.008 294.584 107.336 299.48 105.992L319.496 126.008H336.488L311.144 100.808C312.619 99.9267 314.031 98.9805 315.38 97.9692C320.791 93.9131 325.187 88.8113 328.568 82.664C332.792 74.984 334.904 66.344 334.904 56.744C334.904 46.856 332.696 38.024 328.28 30.248C323.864 22.472 317.816 16.424 310.136 12.104ZM300.855 87.4131L300.871 87.4039C305.676 84.6352 309.438 80.6947 312.187 75.448L312.201 75.4206L312.216 75.3933C315.027 70.1836 316.512 64.0159 316.512 56.744C316.512 49.3625 315.022 43.2122 312.232 38.1242L312.209 38.0823L312.187 38.04C309.427 32.7712 305.696 28.8282 300.983 26.0655C296.258 23.2954 290.811 21.856 284.504 21.856C278.197 21.856 272.75 23.2954 268.024 26.0655C263.301 28.8344 259.512 32.792 256.654 38.0833C253.945 43.1803 252.496 49.3463 252.496 56.744C252.496 64.0265 253.937 70.2054 256.663 75.421C259.517 80.698 263.297 84.6474 268.008 87.413C272.854 90.2019 278.314 91.632 284.504 91.632C290.702 91.632 296.103 90.1988 300.839 87.4225L300.855 87.4131ZM265.496 91.736C259.928 88.472 255.512 83.816 252.248 77.768C249.08 71.72 247.496 64.712 247.496 56.744C247.496 48.68 249.08 41.672 252.248 35.72C255.512 29.672 259.928 25.016 265.496 21.752C271.064 18.488 277.4 16.856 284.504 16.856C291.608 16.856 297.944 18.488 303.512 21.752C309.08 25.016 313.448 29.672 316.616 35.72C319.88 41.672 321.512 48.68 321.512 56.744C321.512 64.712 319.88 71.72 316.616 77.768C313.448 83.816 309.032 88.472 303.368 91.736C297.8 95 291.512 96.632 284.504 96.632C277.496 96.632 271.16 95 265.496 91.736ZM376.78 1.632V70.136C376.78 78.3314 378.763 83.4267 381.777 86.4533C385.031 89.6259 389.738 91.488 396.548 91.488C403.262 91.488 407.857 89.628 411.013 86.4725L411.032 86.453L411.052 86.4338C414.147 83.4056 416.172 78.3214 416.172 70.136V1.632H439.276V69.992C439.276 79.0084 437.461 86.9841 433.555 93.6794L433.546 93.6952L433.536 93.711C429.694 100.188 424.412 105.101 417.748 108.326C411.319 111.483 404.171 113.008 396.404 113.008C388.631 113.008 381.443 111.48 374.932 108.334L374.917 108.327L374.903 108.319C368.328 105.088 363.105 100.172 359.272 93.711L359.247 93.6683L359.222 93.6251C355.435 86.9411 353.676 78.9858 353.676 69.992V1.632H376.78ZM378.26 90.008C373.94 85.688 371.78 79.064 371.78 70.136V6.632H358.676V69.992C358.676 78.344 360.308 85.4 363.572 91.16C366.932 96.824 371.444 101.048 377.108 103.832C382.868 106.616 389.3 108.008 396.404 108.008C403.508 108.008 409.892 106.616 415.556 103.832C421.316 101.048 425.876 96.824 429.236 91.16C432.596 85.4 434.276 78.344 434.276 69.992V6.632H421.172V70.136C421.172 79.064 418.964 85.688 414.548 90.008C410.228 94.328 404.228 96.488 396.548 96.488C388.772 96.488 382.676 94.328 378.26 90.008ZM517.296 45.84V66.64H480.72V91.2H521.616V112H457.616V1.488H521.616V22.288H480.72V45.84H517.296ZM475.72 17.288H516.616V6.488H462.616V107H516.616V96.2H475.72V61.64H512.296V50.84H475.72V17.288ZM210.186 6.632H197.082V107H210.186V6.632Z" fill="white"/>
</svg>
